<?xml version="1.0" standalone="no"?>
<!DOCTYPE svg PUBLIC "-//W3C//DTD SVG 20010904//EN"
 "http://www.w3.org/TR/2001/REC-SVG-20010904/DTD/svg10.dtd">
<svg version="1.0" xmlns="http://www.w3.org/2000/svg"
 width="65.000000pt" height="65.000000pt" viewBox="0 0 65.000000 65.000000"
 preserveAspectRatio="xMidYMid meet">

<g transform="translate(0.000000,65.000000) scale(0.100000,-0.100000)"
fill="#000000" stroke="none">
<path d="M290 560 l0 -90 35 0 35 0 0 90 0 90 -35 0 -35 0 0 -90z"/>
<path d="M277 372 c-22 -25 -21 -75 1 -95 25 -22 75 -21 95 1 22 25 21 75 -1
95 -25 22 -75 21 -95 -1z"/>
<path d="M0 325 l0 -35 90 0 90 0 0 35 0 35 -90 0 -90 0 0 -35z"/>
<path d="M470 325 l0 -35 90 0 90 0 0 35 0 35 -90 0 -90 0 0 -35z"/>
<path d="M290 90 l0 -90 35 0 35 0 0 90 0 90 -35 0 -35 0 0 -90z"/>
</g>
</svg>
