<svg width="150" height="150" viewBox="0 0 150 150" fill="none" xmlns="http://www.w3.org/2000/svg">
<path d="M100.384 96.9001L106.38 103.001V94.4468V92.2748C106.38 91.6678 106.618 91.0977 107.021 90.6866L104.525 88.2333L107.021 90.6866C107.423 90.2777 107.956 90.0592 108.497 90.0592C109.039 90.0592 109.571 90.2776 109.973 90.6866C110.377 91.0977 110.615 91.6678 110.615 92.2748V120.853C110.615 124.492 109.194 127.97 106.683 130.524C104.174 133.077 100.784 134.5 97.2624 134.5H29.8525C26.3309 134.5 22.9411 133.077 20.4322 130.524C17.9212 127.97 16.5 124.492 16.5 120.853V52.2654C16.5 48.6266 17.9212 45.1488 20.4322 42.594C22.9411 40.0412 26.3309 38.6184 29.8525 38.6184H69.175C69.7168 38.6184 70.249 38.8369 70.6509 39.2458C71.0549 39.6569 71.2925 40.2271 71.2925 40.8341C71.2925 41.4411 71.0549 42.0112 70.6509 42.4223C70.249 42.8313 69.7168 43.0497 69.175 43.0497H29.8525C27.4146 43.0497 25.0891 44.0356 23.3841 45.7704C21.6811 47.5032 20.735 49.8406 20.735 52.2654V84.2729V92.8273L26.7312 86.7263L35.0131 78.2998C37.3394 76.061 40.4083 74.8229 43.5873 74.8229C46.7662 74.8229 49.8351 76.061 52.1614 78.2997L66.0608 92.4419L68.557 94.9818L71.0533 92.4419L74.9758 88.4509C74.9775 88.4491 74.9792 88.4474 74.9809 88.4457C77.2651 86.1426 80.3379 84.8615 83.5277 84.8615C86.7176 84.8615 89.7906 86.1428 92.0749 88.4461C92.0764 88.4477 92.078 88.4493 92.0796 88.4509L100.384 96.9001ZM21.7388 97.9949L20.735 99.0162V100.448V120.853C20.735 123.278 21.6811 125.615 23.3841 127.348C25.0891 129.083 27.4146 130.069 29.8525 130.069H88.6115H96.9588L91.1077 124.115L66.9525 99.5381L49.145 81.4195L49.1155 81.3894L49.0852 81.3601C47.613 79.9327 45.6453 79.1263 43.5873 79.1263C41.5292 79.1263 39.5615 79.9327 38.0893 81.3601L38.0591 81.3894L38.0295 81.4195L21.7388 97.9949ZM106.38 120.879L106.38 120.866V120.853V110.622V109.197L105.385 108.177L89.1665 91.5618C89.1633 91.5585 89.1602 91.5552 89.157 91.552C88.4333 90.8031 87.5673 90.2044 86.6074 89.794C85.6431 89.3818 84.6055 89.1686 83.5558 89.1686C82.5061 89.1686 81.4684 89.3818 80.5042 89.794C79.5463 90.2036 78.682 90.8005 77.9593 91.547L74.0377 95.5371L71.6318 97.9851L74.0323 100.438L99.3672 126.33L102.234 129.26L104.678 125.97C105.773 124.496 106.366 122.711 106.38 120.879ZM126.842 39.2293L126.847 39.2344L126.852 39.2395C127.054 39.4428 127.217 39.6879 127.329 39.9622C127.441 40.2367 127.5 40.5332 127.5 40.8341C127.5 41.1349 127.441 41.4314 127.329 41.7059C127.217 41.9803 127.054 42.2254 126.852 42.4286L126.842 42.4388L126.832 42.4491C126.632 42.654 126.398 42.8133 126.144 42.9208C125.891 43.0283 125.621 43.0829 125.35 43.0829C125.079 43.0829 124.809 43.0283 124.556 42.9208C124.302 42.8133 124.068 42.654 123.868 42.4491L123.867 42.4485L116.621 35.0181L110.615 28.8602V37.4618V69.4123C110.615 70.0193 110.377 70.5895 109.973 71.0005C109.571 71.4095 109.039 71.6279 108.497 71.6279C107.956 71.6279 107.423 71.4095 107.021 71.0005C106.618 70.5895 106.38 70.0193 106.38 69.4123V37.4618V28.8602L100.374 35.0181L93.1371 42.4388C93.136 42.44 93.1348 42.4412 93.1337 42.4424C92.7278 42.8535 92.1913 43.0731 91.6449 43.0731C91.097 43.0731 90.559 42.8522 90.1527 42.4388C89.7445 42.0234 89.5045 41.4473 89.5045 40.8341C89.5045 40.5317 89.5631 40.2337 89.6755 39.9575C89.7879 39.6815 89.951 39.4346 90.1527 39.2293L106.972 22.1161C107.171 21.9273 107.401 21.7818 107.647 21.6846L107.68 21.6716L107.713 21.658C108.217 21.4473 108.778 21.4473 109.282 21.658L109.315 21.6716L109.348 21.6846C109.594 21.7818 109.824 21.9273 110.023 22.1161L126.842 39.2293Z" fill="#B0A9A9" stroke="#B0A9A9" stroke-width="7"/>
</svg>
